<svg width="725" height="186" viewBox="0 0 725 186" fill="none" xmlns="http://www.w3.org/2000/svg">
<path d="M77.1603 31.231V107.335M77.1603 107.335H3C3 149.257 36.3093 183.439 77.1603 183.439M77.1603 107.335V183.439M77.1603 183.439C118.011 183.439 151.321 149.257 151.321 107.335V31.231" stroke="black" stroke-opacity="0.1" stroke-width="4.24514"/>
<path d="M77.1603 31.231C36.3093 31.231 3 65.4134 3 107.658" stroke="black" stroke-opacity="0.1" stroke-width="4.24514"/>
<path d="M149.321 107.671H79.1606" stroke="black" stroke-opacity="0.1" stroke-width="4.24514"/>
<mask id="path-4-inside-1_1867_41141" fill="white">
<path d="M75 3.6239C75 1.62247 76.6225 0 78.6239 0H149.567C151.569 0 153.191 1.62247 153.191 3.6239V32.5605H75V3.6239Z"/>
</mask>
<path d="M75 3.6239C75 1.62247 76.6225 0 78.6239 0H149.567C151.569 0 153.191 1.62247 153.191 3.6239V32.5605H75V3.6239Z" stroke="black" stroke-opacity="0.1" stroke-width="10.5611" mask="url(#path-4-inside-1_1867_41141)"/>
<path d="M210.987 106.054C212.739 106.054 214.159 107.474 214.159 109.226C214.489 120.647 215.808 128.896 217.787 133.337C220.096 138.096 224.713 140.316 231.969 140.316C239.225 140.316 243.843 137.778 246.151 132.702C247.471 129.53 248.13 124.454 248.13 117.475V35.8441C248.13 33.2709 250.216 31.1848 252.79 31.1848H275.793C278.366 31.1848 280.452 33.2709 280.452 35.8441V117.158C280.452 129.847 278.143 139.682 273.856 147.296C266.27 159.668 252.748 166.013 233.289 166.013C213.83 166.013 200.637 160.937 194.041 150.785C187.444 140.633 184.146 126.992 184.146 109.544C184.146 107.616 185.709 106.054 187.636 106.054H210.987Z" stroke="black" stroke-opacity="0.1" stroke-width="4"/>
<path d="M428.822 88.9731C426.778 88.9731 425.075 87.472 424.562 85.4936C423.815 82.6109 422.652 79.8661 420.841 77.6065C417.362 72.8705 412.301 70.6603 405.341 70.6603C395.219 70.6603 388.26 75.7121 384.781 85.5C382.883 90.8675 381.934 97.8137 381.934 106.654C381.934 114.863 382.883 121.81 384.781 126.861C388.26 136.334 395.219 141.07 405.025 141.07C411.984 141.07 417.045 139.175 419.892 135.386C422.13 132.408 423.781 128.845 424.693 124.544C425.132 122.471 426.878 120.862 428.998 120.862H451.199C453.599 120.862 455.514 122.902 455.107 125.267C453.818 132.767 450.601 139.824 445.831 146.437C436.341 159.382 422.739 166.013 404.076 166.013C385.729 166.013 372.128 160.645 363.587 149.595C355.046 138.859 350.618 124.651 350.618 107.286C350.618 87.7101 355.363 72.5547 364.852 61.8197C374.342 51.0846 387.627 45.4014 404.393 45.4014C418.627 45.4014 430.331 48.5587 439.504 54.8735C447.809 60.5905 453.003 70.4483 455.086 84.4468C455.445 86.8645 453.521 88.9731 451.077 88.9731H428.822Z" stroke="black" stroke-opacity="0.1" stroke-width="4"/>
<path d="M574.348 147.678C564.521 159.792 549.453 166.013 529.471 166.013C509.489 166.013 494.421 159.792 484.594 147.678C474.767 135.565 469.853 120.832 469.853 103.807C469.853 86.7823 474.767 72.3768 484.594 59.9356C494.421 47.4945 509.489 41.2739 529.471 41.2739C549.453 41.2739 564.521 47.4945 574.348 59.9356C584.175 72.3768 589.089 86.7823 589.089 103.807C589.089 120.832 584.175 135.237 574.348 147.678ZM549.781 130.654C554.694 124.433 556.987 115.266 556.987 103.48C556.987 91.6933 554.694 82.8536 549.781 76.3056C544.867 70.085 537.988 66.811 529.144 66.811C520.299 66.811 513.42 70.085 508.507 76.3056C503.593 82.5262 501.3 91.6933 501.3 103.48C501.3 115.266 503.593 124.106 508.507 130.654C513.42 136.874 520.299 140.148 529.144 140.148C537.988 140.148 544.867 136.874 549.781 130.654Z" stroke="black" stroke-opacity="0.1" stroke-width="4"/>
<path d="M708.19 147.678C698.326 159.792 683.202 166.013 663.146 166.013C643.089 166.013 627.965 159.792 618.101 147.678C608.238 135.565 603.306 120.832 603.306 103.807C603.306 86.7823 608.238 72.3768 618.101 59.9356C627.965 47.4945 643.089 41.2739 663.146 41.2739C683.202 41.2739 698.326 47.4945 708.19 59.9356C718.054 72.3768 722.985 86.7823 722.985 103.807C723.314 120.832 718.054 135.237 708.19 147.678ZM683.859 130.654C688.791 124.433 691.093 115.266 691.093 103.48C691.093 91.6933 688.791 82.8536 683.859 76.3056C678.928 70.085 672.023 66.811 663.146 66.811C654.268 66.811 647.364 70.085 642.432 76.3056C637.5 82.5262 635.198 91.6933 635.198 103.48C635.198 115.266 637.5 124.106 642.432 130.654C647.364 136.874 654.268 140.148 663.146 140.148C672.023 140.148 678.928 136.874 683.859 130.654Z" stroke="black" stroke-opacity="0.1" stroke-width="4"/>
<path d="M305.63 42.6499C303.629 42.6499 302.006 44.2724 302.006 46.2738V74.7779C302.006 77.9696 305.834 79.6026 308.138 77.3939L337.873 48.8899C340.23 46.63 338.631 42.6499 335.365 42.6499H305.63Z" stroke="black" stroke-opacity="0.1" stroke-width="4"/>
<path d="M302.906 104.968C302.329 105.549 302.006 106.335 302.006 107.154V161.737C302.006 163.452 303.397 164.843 305.112 164.843H326.165C327.88 164.843 329.271 163.452 329.271 161.737V85.9059C329.271 83.1317 325.911 81.7489 323.958 83.7196L302.906 104.968Z" stroke="black" stroke-opacity="0.1" stroke-width="4"/>
</svg>
